<svg xmlns="http://www.w3.org/2000/svg" xmlns:xlink="http://www.w3.org/1999/xlink" width="1166" height="595" viewBox="0 0 1166 595">
  <rect x="0" y="0" width="100%" height="100%" fill="black"></rect>
  <g fill="#fff" fill-rule="evenodd">

    <!-- M -->
    <path d="M112.202 157.283c-1.364 0-1.592-.455-1.364-1.593l.682-5.236c.228-1.138.682-1.366 1.82-1.366l7.28-.456c5.231-.455 5.914-2.276 8.416-20.488l12.056-85.141h-.455L87.635 158.649c-.683 1.366-1.365 1.593-2.502 1.593H66.48c-1.138 0-2.048-.227-2.275-1.593L44.415 42.092h-.456L36 98.094c-5.233 38.928-3.186 49.855 6.823 50.538l3.64.456c1.364 0 1.592.455 1.364 1.593l-.682 5.009c-.228 1.365-.455 1.593-1.82 1.593H1.877c-1.366 0-1.593-.455-1.366-1.593l.683-5.236c.227-1.138.455-1.366 1.82-1.366l2.957-.456c9.1-1.138 13.876-11.61 19.335-50.538l9.327-65.335c2.502-17.985 2.047-20.261-3.185-20.489l-9.099-.455c-1.364 0-1.82-.455-1.592-1.593l.682-5.009c.228-1.366.683-1.593 2.048-1.593H80.81c1.137 0 2.047.227 2.274 1.82l17.289 100.394h.455l45.95-100.393c.683-1.594 1.82-1.821 2.957-1.821h56.87c1.364 0 1.592.455 1.364 1.593l-.682 5.009c-.228 1.365-.455 1.593-1.82 1.593l-8.644.455c-5.005.228-6.142 2.277-8.644 20.49l-13.421 95.384c-2.503 18.212-2.275 20.033 2.957 20.488l7.962.456c1.364 0 1.592.455 1.364 1.593l-.682 5.009c-.228 1.365-.455 1.593-1.82 1.593h-72.338z"></path>
    <!-- A -->
    <path transform="translate(192.024 .267)" d="M71.673 42.736h-.228L48.47 95.095h32.757l-9.554-52.36zm2.502 114.28c-1.364 0-1.592-.456-1.364-1.594l.682-5.236c.228-1.138.682-1.365 1.82-1.365l6.597-.456c4.321-.228 6.823-2.049 6.823-7.285 0-3.415-.909-9.106-2.047-15.252l-3.866-21.4H44.376l-1.82 4.098c-3.412 7.968-6.824 18.895-6.824 27.09 0 7.513 2.73 12.521 9.326 12.749l5.005.456c1.364 0 1.592.455 1.364 1.593l-.682 5.008c-.228 1.366-.682 1.594-1.82 1.594H1.61c-1.137 0-1.592-.456-1.365-1.594l.683-5.236c.227-1.138.682-1.365 2.047-1.365l2.275-.456c5.232-.455 7.734-3.187 13.421-14.114 5.232-10.245 10.464-21.4 15.924-33.92l42.992-97.89C78.27.848 78.725.393 80.772.393h25.932c1.365 0 1.82.228 2.047 2.048l24.568 123.614c4.095 20.034 5.687 21.855 11.147 22.31l3.867.456c1.364 0 1.82.455 1.592 1.593l-.91 5.008c-.228 1.366-.455 1.594-1.82 1.594h-73.02z"></path>
    <!-- K -->
    <path d="M451.36 157.283c-1.82 0-2.502-.455-3.184-2.276l-25.023-66.93c-7.052 7.058-10.009 13.66-11.146 23.22l-2.275 16.847c-2.274 18.212-2.274 20.033 2.957 20.488l7.962.456c1.365 0 1.592.455 1.365 1.593l-.683 5.009c-.227 1.365-.454 1.593-1.82 1.593H346.95c-1.138 0-1.365-.455-1.138-1.593l.683-5.236c.227-1.138.455-1.366 1.82-1.366l7.279-.456c5.232-.455 5.914-2.276 8.416-20.488l13.422-95.385c2.502-18.212 2.274-20.033-2.958-20.489l-7.961-.455c-1.138 0-1.593-.455-1.365-1.593l.682-5.009c.228-1.366.683-1.593 1.82-1.593h72.338c1.364 0 1.592.455 1.364 1.593l-.682 5.009c-.228 1.365-.455 1.593-1.82 1.593l-7.279.455c-5.232.456-5.914 2.277-8.417 20.49l-7.052 50.765h.228c4.095-6.375 16.606-18.668 39.808-41.66 9.1-9.106 15.241-16.163 15.241-22.537 0-4.554-2.502-6.83-7.506-7.058l-5.005-.455c-1.364 0-1.82-.455-1.592-1.593l.682-5.009c.228-1.366.683-1.593 2.048-1.593h57.779c1.365 0 1.592.455 1.365 1.593l-.683 5.009c-.227 1.365-.455 1.593-1.82 1.593l-3.412.455c-11.374.683-17.515 4.78-36.851 23.676l-18.426 18.212 29.117 73.986c7.052 17.301 8.872 20.488 13.876 20.716l2.275.228c1.137 0 1.593.455 1.365 1.593l-.91 5.009c-.228 1.365-.455 1.593-1.82 1.593h-50.5z"></path>
    <!-- E -->
    <path d="M510.956 157.283c-1.365 0-1.592-.455-1.365-1.593l.683-5.236c.227-1.138.454-1.366 1.82-1.366l7.051-.456c5.46-.455 6.142-2.276 8.645-20.488l13.42-95.385c2.503-18.212 2.275-20.033-2.957-20.489l-7.961-.455c-1.138 0-1.592-.455-1.365-1.593l.682-5.009c.227-1.366.683-1.593 1.82-1.593h111.236c1.137 0 1.365.683 1.137 2.048l-6.597 48.49c-.227 1.366-.454 1.821-2.046 1.821h-5.687c-1.138 0-1.366-.455-1.138-1.821l.228-3.643c2.502-24.358-3.185-37.106-22.748-37.106h-16.151l-8.416 58.96h7.279c10.919 0 16.15-7.74 18.88-20.487l.455-2.05c.227-1.593.455-1.82 1.593-1.82h5.231c1.366 0 1.593.455 1.366 1.82l-7.735 54.864c-.228 1.366-.455 2.05-1.82 2.05h-5.232c-1.137 0-1.365-.457-1.137-1.822l.228-3.415c.909-12.293-2.276-20.033-12.74-20.033h-7.506l-9.327 65.79h21.838c19.79 0 30.254-11.382 36.624-36.195l.91-3.87c.455-1.594.682-1.822 1.82-1.822h5.687c1.137 0 1.592.455 1.364 1.821l-9.326 48.034c-.227 1.366-.455 2.05-1.593 2.05h-117.15z"></path>


    <!-- O -->
    <path transform="translate(710.026 .267)" d="M85.27 9.499c-13.648 0-21.382 10.471-26.842 30.732-6.369 23.22-11.373 57.824-11.373 78.995 0 21.171 6.142 31.415 19.335 31.415 13.648 0 21.383-10.244 26.842-30.505 6.142-23.22 11.147-57.822 11.147-78.994 0-21.172-5.915-31.643-19.108-31.643M65.253 159.975C28.857 159.975.65 139.259.65 95.551.65 42.963 33.86.393 86.18.393c36.169 0 64.604 20.716 64.604 64.425 0 52.586-33.44 95.157-85.531 95.157"></path>
    <!-- U -->
    <path d="M873.999 115.85c0-3.414.455-7.74.91-11.154l10.009-71.937c2.502-18.212 2.275-20.033-2.958-20.489L874 11.815c-1.138 0-1.592-.455-1.365-1.593l.683-5.009c.227-1.365.682-1.593 1.82-1.593h72.337c1.365 0 1.592.455 1.365 1.593l-.683 5.009c-.227 1.365-.455 1.593-1.82 1.593l-7.279.455c-5.232.456-5.914 2.277-8.416 20.489l-10.237 73.53c-.91 5.009-1.365 10.017-1.365 14.342 0 16.392 8.19 24.36 22.975 24.36 19.336 0 29.117-14.343 33.212-43.254l5.46-38.928c5.687-38.929 2.729-49.628-10.01-50.539l-6.37-.455c-1.364 0-1.591-.455-1.364-1.593l.683-5.009c.227-1.365.455-1.593 1.82-1.593h49.362c1.365 0 1.592.455 1.365 1.593l-.91 5.009c-.228 1.365-.455 1.593-1.82 1.593l-2.73.455c-8.871 1.139-13.648 11.61-19.107 50.539l-5.46 38.017c-5.232 36.424-18.653 59.417-58.234 59.417-30.027 0-53.912-14.342-53.912-44.392"></path>
    <!-- R -->
    <path d="M1092.602 13.409h-9.327l-8.416 59.189h9.554c9.1 0 15.924-2.732 19.79-12.066 3.867-7.968 5.46-17.984 5.46-27.546 0-14.797-5.914-19.577-17.06-19.577 m52.091 50.31c-8.871 7.74-22.065 11.838-39.353 12.293v.911c24.795 4.325 36.168 15.48 37.306 38.928 1.137 20.488 2.275 28.683 8.19 28.683 2.729 0 4.549-1.593 6.596-4.324.682-1.139 1.138-1.594 2.274-1.139l4.55 1.821c1.138.455 1.138 1.139.455 2.505-7.28 12.065-19.108 16.846-33.666 16.846-23.886 0-34.122-14.57-34.577-45.075-.455-25.041-2.502-33.01-15.014-33.01h-7.96l-6.143 45.986c-2.502 18.212-2.502 20.033 2.73 20.489l7.962.455c1.365 0 1.592.455 1.365 1.593l-.683 5.009c-.227 1.365-.455 1.593-1.82 1.593h-72.565c-1.138 0-1.364-.455-1.138-1.593l.683-5.237c.227-1.137.683-1.365 1.82-1.365l7.28-.455c5.231-.456 5.914-2.277 8.643-20.49l13.194-95.384c2.502-18.212 2.275-20.033-2.73-20.489l-7.962-.455c-1.364 0-1.82-.456-1.592-1.593l.682-5.009c.228-1.366.683-1.593 2.048-1.593h89.171c21.383 0 42.538 7.74 42.538 32.098 0 11.838-4.777 21.4-12.284 28.001"></path>


    <!-- TERROR -->
    <path transform="translate(-975,0)" d="M996.857 416.435c-1.878 0-2.504-.626-2.19-2.192l.939-7.204c.312-1.566.938-1.879 2.503-1.879l10.014-.626c7.198-.627 8.137-3.133 11.893-28.187l21.907-157.848h-8.45c-25.975 0-36.929 22.55-44.44 53.869l-1.877 7.203c-.626 2.192-.94 2.82-2.504 2.82h-7.824c-1.565 0-1.878-.94-1.565-2.82l10.015-71.72c.313-1.88.939-2.819 2.504-2.819h174.94c1.565 0 1.877.94 1.565 2.819l-10.328 71.72c-.313 1.88-.626 2.82-2.504 2.82h-7.511c-1.565 0-2.19-.94-1.877-2.82l.626-8.77c2.503-29.439-2.191-52.302-29.417-52.302h-8.763l-21.907 157.848c-3.443 25.054-3.13 27.56 4.068 28.187l10.954.626c1.877 0 2.503.626 2.19 2.192l-1.252 6.891c-.313 1.878-.625 2.192-2.503 2.192h-99.206z"></path>
    <path transform="translate(-618,0)" d="M784.677 416.435c-1.878 0-2.19-.626-1.878-2.192l.94-7.204c.313-1.566.626-1.879 2.504-1.879l9.7-.626c7.512-.627 8.45-3.133 11.893-28.187L826.3 245.12c3.443-25.055 3.13-27.56-4.068-28.187l-10.953-.627c-1.565 0-2.191-.625-1.878-2.192l.939-6.89c.312-1.879.939-2.192 2.504-2.192h153.033c1.564 0 1.877.94 1.564 2.819l-9.075 66.709c-.314 1.88-.626 2.505-2.817 2.505h-7.824c-1.564 0-1.878-.626-1.564-2.505l.313-5.01c3.442-33.512-4.381-51.05-31.296-51.05H892.96l-11.58 81.115h10.015c15.022 0 22.22-10.648 25.975-28.187l.626-2.82c.313-2.191.625-2.504 2.19-2.504h7.198c1.878 0 2.191.627 1.878 2.505l-10.64 75.479c-.313 1.88-.626 2.819-2.504 2.819h-7.198c-1.565 0-1.877-.626-1.565-2.505l.314-4.698c1.251-16.913-3.13-27.562-17.526-27.562h-10.327l-12.831 90.513h30.043c27.227 0 41.623-15.66 50.385-49.797l1.252-5.325c.626-2.192.94-2.505 2.504-2.505h7.823c1.565 0 2.191.626 1.878 2.505l-12.83 66.083c-.314 1.88-.627 2.819-2.192 2.819h-161.17z"></path>
    <path transform="scale(1.37) translate(-760, 146)" d="M1092.602 13.409h-9.327l-8.416 59.189h9.554c9.1 0 15.924-2.732 19.79-12.066 3.867-7.968 5.46-17.984 5.46-27.546 0-14.797-5.914-19.577-17.06-19.577 m52.091 50.31c-8.871 7.74-22.065 11.838-39.353 12.293v.911c24.795 4.325 36.168 15.48 37.306 38.928 1.137 20.488 2.275 28.683 8.19 28.683 2.729 0 4.549-1.593 6.596-4.324.682-1.139 1.138-1.594 2.274-1.139l4.55 1.821c1.138.455 1.138 1.139.455 2.505-7.28 12.065-19.108 16.846-33.666 16.846-23.886 0-34.122-14.57-34.577-45.075-.455-25.041-2.502-33.01-15.014-33.01h-7.96l-6.143 45.986c-2.502 18.212-2.502 20.033 2.73 20.489l7.962.455c1.365 0 1.592.455 1.365 1.593l-.683 5.009c-.227 1.365-.455 1.593-1.82 1.593h-72.565c-1.138 0-1.364-.455-1.138-1.593l.683-5.237c.227-1.137.683-1.365 1.82-1.365l7.28-.455c5.231-.456 5.914-2.277 8.643-20.49l13.194-95.384c2.502-18.212 2.275-20.033-2.73-20.489l-7.962-.455c-1.364 0-1.82-.456-1.592-1.593l.682-5.009c.228-1.366.683-1.593 2.048-1.593h89.171c21.383 0 42.538 7.74 42.538 32.098 0 11.838-4.777 21.4-12.284 28.001"></path>
    <path transform="scale(1.37) translate(-598, 146)" d="M1092.602 13.409h-9.327l-8.416 59.189h9.554c9.1 0 15.924-2.732 19.79-12.066 3.867-7.968 5.46-17.984 5.46-27.546 0-14.797-5.914-19.577-17.06-19.577 m52.091 50.31c-8.871 7.74-22.065 11.838-39.353 12.293v.911c24.795 4.325 36.168 15.48 37.306 38.928 1.137 20.488 2.275 28.683 8.19 28.683 2.729 0 4.549-1.593 6.596-4.324.682-1.139 1.138-1.594 2.274-1.139l4.55 1.821c1.138.455 1.138 1.139.455 2.505-7.28 12.065-19.108 16.846-33.666 16.846-23.886 0-34.122-14.57-34.577-45.075-.455-25.041-2.502-33.01-15.014-33.01h-7.96l-6.143 45.986c-2.502 18.212-2.502 20.033 2.73 20.489l7.962.455c1.365 0 1.592.455 1.365 1.593l-.683 5.009c-.227 1.365-.455 1.593-1.82 1.593h-72.565c-1.138 0-1.364-.455-1.138-1.593l.683-5.237c.227-1.137.683-1.365 1.82-1.365l7.28-.455c5.231-.456 5.914-2.277 8.643-20.49l13.194-95.384c2.502-18.212 2.275-20.033-2.73-20.489l-7.962-.455c-1.364 0-1.82-.456-1.592-1.593l.682-5.009c.228-1.366.683-1.593 2.048-1.593h89.171c21.383 0 42.538 7.74 42.538 32.098 0 11.838-4.777 21.4-12.284 28.001"></path>
    <path transform="scale(1.37) translate(555, 146)" d="M85.27 9.499c-13.648 0-21.382 10.471-26.842 30.732-6.369 23.22-11.373 57.824-11.373 78.995 0 21.171 6.142 31.415 19.335 31.415 13.648 0 21.383-10.244 26.842-30.505 6.142-23.22 11.147-57.822 11.147-78.994 0-21.172-5.915-31.643-19.108-31.643M65.253 159.975C28.857 159.975.65 139.259.65 95.551.65 42.963 33.86.393 86.18.393c36.169 0 64.604 20.716 64.604 64.425 0 52.586-33.44 95.157-85.531 95.157"></path>
    <path transform="scale(1.37) translate(-315, 146)" d="M1092.602 13.409h-9.327l-8.416 59.189h9.554c9.1 0 15.924-2.732 19.79-12.066 3.867-7.968 5.46-17.984 5.46-27.546 0-14.797-5.914-19.577-17.06-19.577 m52.091 50.31c-8.871 7.74-22.065 11.838-39.353 12.293v.911c24.795 4.325 36.168 15.48 37.306 38.928 1.137 20.488 2.275 28.683 8.19 28.683 2.729 0 4.549-1.593 6.596-4.324.682-1.139 1.138-1.594 2.274-1.139l4.55 1.821c1.138.455 1.138 1.139.455 2.505-7.28 12.065-19.108 16.846-33.666 16.846-23.886 0-34.122-14.57-34.577-45.075-.455-25.041-2.502-33.01-15.014-33.01h-7.96l-6.143 45.986c-2.502 18.212-2.502 20.033 2.73 20.489l7.962.455c1.365 0 1.592.455 1.365 1.593l-.683 5.009c-.227 1.365-.455 1.593-1.82 1.593h-72.565c-1.138 0-1.364-.455-1.138-1.593l.683-5.237c.227-1.137.683-1.365 1.82-1.365l7.28-.455c5.231-.456 5.914-2.277 8.643-20.49l13.194-95.384c2.502-18.212 2.275-20.033-2.73-20.489l-7.962-.455c-1.364 0-1.82-.456-1.592-1.593l.682-5.009c.228-1.366.683-1.593 2.048-1.593h89.171c21.383 0 42.538 7.74 42.538 32.098 0 11.838-4.777 21.4-12.284 28.001"></path>

    <!-- G -->
    <path d="M.05 542.024c0-42.655 24.251-76.3 73.12-76.3 12.493 0 22.781 2.39 29.578 5.148l.552-2.023c.367-1.287.735-1.654 1.837-1.654h2.94c1.47 0 1.653.367 1.47 1.654l-5.88 39.896c-.183 1.104-.367 1.655-1.47 1.655h-4.592c-.919 0-1.102-.551-.919-1.655l.184-5.147c1.653-17.65-5.88-30.704-22.781-30.704-13.78 0-22.23 8.641-27.741 26.659-5.328 17.65-8.635 43.574-8.635 61.96 0 17.098 4.96 25.74 17.452 25.74 4.042 0 8.452-.92 11.208-2.758l2.939-21.144c2.205-14.524 1.654-16.362-2.572-16.362l-10.472-.368c-1.103 0-1.47-.368-1.286-1.472l.552-4.044c.183-1.104.55-1.287 1.653-1.287h60.443c.918 0 1.102.367.918 1.47l-.551 4.046c-.184.919-.367 1.103-1.286 1.287l-5.695.368c-4.41.183-4.777 1.838-6.798 16.362l-4.042 28.131c-.367 1.287-.734 1.654-2.02 1.654H95.4c-.918 0-1.286-.184-1.286-1.47l-.735-3.126h-.368c-9.92 3.494-24.25 6.067-38.029 6.067-34.539 0-54.931-17.1-54.931-52.583"></path>
    <!-- R -->
    <path d="M184.868 476.02h-7.532l-6.798 47.802h7.716c7.35 0 12.86-2.206 15.984-9.744 3.123-6.435 4.41-14.524 4.41-22.247 0-11.95-4.778-15.811-13.78-15.811m42.071 40.631c-7.165 6.252-17.82 9.561-31.783 9.93v.735c20.026 3.493 29.212 12.501 30.13 31.44.919 16.546 1.837 23.165 6.614 23.165 2.205 0 3.674-1.287 5.327-3.493.552-.92.92-1.287 1.838-.92l3.674 1.471c.919.368.919.92.367 2.023-5.879 9.744-15.432 13.605-27.19 13.605-19.29 0-27.557-11.767-27.924-36.403-.368-20.225-2.022-26.66-12.126-26.66h-6.43l-4.96 37.14c-2.021 14.708-2.021 16.178 2.204 16.546l6.43.369c1.103 0 1.287.367 1.103 1.286l-.551 4.045c-.184 1.103-.368 1.287-1.47 1.287h-58.606c-.919 0-1.102-.368-.919-1.287l.551-4.228c.185-.92.552-1.103 1.47-1.103l5.88-.369c4.225-.368 4.776-1.838 6.98-16.547l10.657-77.035c2.02-14.71 1.837-16.18-2.206-16.548l-6.43-.367c-1.102 0-1.47-.368-1.286-1.287l.551-4.045c.184-1.103.552-1.287 1.654-1.287h72.017c17.27 0 34.356 6.25 34.356 25.923 0 9.561-3.859 17.283-9.922 22.614"></path>
    <!-- E -->
    <path d="M244.758 592.217c-1.102 0-1.286-.368-1.102-1.287l.551-4.229c.184-.919.368-1.102 1.47-1.102l5.694-.369c4.41-.368 4.961-1.838 6.983-16.547l10.838-77.035c2.021-14.709 1.838-16.18-2.388-16.548l-6.43-.367c-.92 0-1.286-.368-1.103-1.287l.552-4.045c.184-1.103.551-1.287 1.47-1.287h89.837c.92 0 1.103.551.92 1.655l-5.329 39.161c-.184 1.103-.367 1.47-1.653 1.47h-4.593c-.92 0-1.103-.367-.92-1.47l.184-2.942c2.022-19.672-2.571-29.968-18.37-29.968h-13.045l-6.797 47.618h5.878c8.819 0 13.045-6.25 15.25-16.546l.367-1.655c.183-1.287.367-1.471 1.285-1.471h4.226c1.102 0 1.286.367 1.102 1.47l-6.246 44.31c-.184 1.103-.367 1.654-1.47 1.654h-4.225c-.918 0-1.102-.367-.918-1.47l.183-2.758c.735-9.928-1.837-16.18-10.289-16.18h-6.062l-7.532 53.135h17.637c15.983 0 24.434-9.193 29.578-29.233l.735-3.126c.367-1.286.551-1.47 1.47-1.47h4.592c.92 0 1.286.367 1.103 1.47l-7.532 38.794c-.184 1.104-.368 1.655-1.287 1.655h-94.614z"></path>
    <!-- A -->
    <path d="M405.14 499.921h-.183l-18.555 42.287h26.455l-7.716-42.287zm2.022 92.296c-1.102 0-1.286-.368-1.102-1.287l.551-4.229c.183-.918.551-1.103 1.47-1.103l5.327-.367c3.49-.185 5.512-1.655 5.512-5.884 0-2.758-.735-7.354-1.653-12.318l-3.124-17.283h-31.048l-1.47 3.31c-2.756 6.434-5.51 15.26-5.51 21.879 0 6.066 2.204 10.111 7.532 10.296l4.041.367c1.102 0 1.286.368 1.102 1.287l-.55 4.045c-.185 1.103-.552 1.287-1.47 1.287h-38.214c-.919 0-1.286-.368-1.102-1.287l.55-4.229c.184-.918.552-1.103 1.654-1.103l1.838-.367c4.225-.368 6.246-2.575 10.84-11.4 4.225-8.273 8.45-17.282 12.859-27.394l34.723-79.059c.55-1.287.918-1.654 2.572-1.654h20.944c1.102 0 1.47.184 1.653 1.654l19.841 99.834c3.308 16.18 4.593 17.65 9.002 18.019l3.124.367c1.102 0 1.47.368 1.286 1.287l-.735 4.045c-.184 1.103-.367 1.287-1.47 1.287h-58.973z"></path>
    <!-- T -->
    <path d="M482.483 592.217c-1.102 0-1.47-.368-1.286-1.287l.551-4.229c.184-.919.552-1.102 1.47-1.102l5.879-.369c4.226-.368 4.777-1.838 6.982-16.547l12.86-92.663h-4.96c-15.25 0-21.679 13.238-26.088 31.623l-1.103 4.229c-.367 1.287-.55 1.655-1.47 1.655h-4.592c-.92 0-1.103-.552-.92-1.655l5.88-42.103c.184-1.104.551-1.655 1.47-1.655h102.698c.918 0 1.102.551.918 1.655l-6.062 42.103c-.184 1.103-.368 1.655-1.47 1.655h-4.41c-.918 0-1.286-.552-1.102-1.655l.368-5.149c1.47-17.282-1.286-30.703-17.27-30.703h-5.144l-12.86 92.663c-2.021 14.71-1.837 16.18 2.388 16.547l6.43.369c1.103 0 1.47.367 1.287 1.286l-.736 4.045c-.183 1.104-.367 1.287-1.469 1.287h-58.239z"></path>

    <!-- A -->
    <path d="M670.791 499.921h-.184l-18.555 42.287h26.454l-7.715-42.287z m2.021 92.296c-1.102 0-1.287-.368-1.102-1.287l.55-4.229c.184-.918.552-1.103 1.47-1.103l5.328-.367c3.49-.185 5.512-1.655 5.512-5.884 0-2.758-.735-7.354-1.654-12.318l-3.123-17.283h-31.048l-1.47 3.31c-2.756 6.434-5.511 15.26-5.511 21.879 0 6.066 2.204 10.111 7.532 10.296l4.042.367c1.102 0 1.285.368 1.102 1.287l-.551 4.045c-.184 1.103-.551 1.287-1.47 1.287h-38.213c-.92 0-1.286-.368-1.103-1.287l.551-4.229c.184-.918.552-1.103 1.654-1.103l1.837-.367c4.225-.368 6.246-2.575 10.84-11.4 4.225-8.273 8.45-17.282 12.86-27.394l34.722-79.059c.551-1.287.919-1.654 2.572-1.654h20.944c1.102 0 1.47.184 1.654 1.654l19.84 99.834c3.308 16.18 4.594 17.65 9.004 18.019l3.122.367c1.103 0 1.47.368 1.286 1.287l-.735 4.045c-.183 1.103-.367 1.287-1.469 1.287h-58.973z"></path>
    <!-- G -->
    <path d="M734.17 542.024c0-42.655 24.251-76.3 73.12-76.3 12.493 0 22.78 2.39 29.578 5.148l.552-2.023c.367-1.287.734-1.654 1.837-1.654h2.94c1.47 0 1.653.367 1.47 1.654l-5.88 39.896c-.184 1.104-.367 1.655-1.47 1.655h-4.592c-.92 0-1.103-.551-.92-1.655l.184-5.147c1.654-17.65-5.879-30.704-22.78-30.704-13.78 0-22.23 8.641-27.742 26.659-5.327 17.65-8.635 43.574-8.635 61.96 0 17.098 4.961 25.74 17.453 25.74 4.042 0 8.452-.92 11.208-2.758l2.939-21.144c2.205-14.524 1.653-16.362-2.572-16.362l-10.472-.368c-1.103 0-1.47-.368-1.286-1.472l.55-4.044c.184-1.104.553-1.287 1.655-1.287h60.443c.918 0 1.102.367.918 1.47l-.551 4.046c-.184.919-.367 1.103-1.286 1.287l-5.695.368c-4.41.183-4.777 1.838-6.798 16.362l-4.042 28.131c-.367 1.287-.734 1.654-2.02 1.654h-2.756c-.919 0-1.286-.184-1.286-1.47l-.735-3.126h-.368c-9.92 3.494-24.25 6.067-38.03 6.067-34.538 0-54.93-17.1-54.93-52.583"></path>
    <!-- A -->
    <path d="M900.433 499.921h-.184l-18.555 42.287h26.454l-7.715-42.287z m2.02 92.296c-1.102 0-1.286-.368-1.102-1.287l.551-4.229c.184-.918.552-1.103 1.47-1.103l5.328-.367c3.49-.185 5.512-1.655 5.512-5.884 0-2.758-.736-7.354-1.654-12.318l-3.123-17.283h-31.049l-1.47 3.31c-2.755 6.434-5.51 15.26-5.51 21.879 0 6.066 2.204 10.111 7.532 10.296l4.042.367c1.102 0 1.285.368 1.102 1.287l-.551 4.045c-.184 1.103-.551 1.287-1.47 1.287h-38.213c-.92 0-1.286-.368-1.103-1.287l.551-4.229c.184-.918.552-1.103 1.654-1.103l1.837-.367c4.225-.368 6.246-2.575 10.84-11.4 4.225-8.273 8.45-17.282 12.86-27.394l34.722-79.059c.55-1.287.918-1.654 2.572-1.654h20.944c1.102 0 1.47.184 1.654 1.654l19.84 99.834c3.308 16.18 4.593 17.65 9.003 18.019l3.123.367c1.103 0 1.47.368 1.286 1.287l-.735 4.045c-.184 1.103-.367 1.287-1.469 1.287h-58.973z"></path>
    <!-- I -->
    <path d="M967.854 592.217c-1.103 0-1.286-.368-1.103-1.287l.552-4.229c.184-.919.368-1.102 1.47-1.102l5.878-.369c4.226-.183 4.777-1.838 6.799-16.547l10.838-77.035c2.021-14.709 1.838-16.364-2.388-16.548l-6.43-.367c-.92 0-1.286-.368-1.103-1.287l.552-4.045c.184-1.103.551-1.287 1.47-1.287h58.422c1.102 0 1.286.368 1.102 1.287l-.551 4.045c-.184 1.102-.368 1.287-1.47 1.287l-5.879.367c-4.225.184-4.777 1.839-6.798 16.548l-10.839 77.035c-2.02 14.71-1.837 16.364 2.389 16.547l6.43.369c1.102 0 1.286.367 1.102 1.286l-.551 4.045c-.184 1.104-.368 1.287-1.47 1.287h-58.422z"></path>
    <!-- N -->
    <path d="M1118.133 594.607c-1.103 0-1.47-.368-2.021-1.286l-48.318-90.274h-.183l-5.88 41.367c-4.408 31.44-.183 40.265 10.289 40.816l6.063.368c.918 0 1.286.368 1.102 1.287l-.736 4.045c-.183 1.104-.366 1.287-1.468 1.287h-42.99c-1.103 0-1.287-.368-1.103-1.287l.55-4.229c.185-.919.552-1.103 1.654-1.103l2.39-.368c7.347-.919 11.206-9.376 15.615-40.816l7.348-52.766c2.205-14.525 1.837-16.364-2.388-16.548l-7.9-.367c-1.102 0-1.47-.368-1.286-1.288l.552-4.045c.183-1.103.55-1.286 1.653-1.286h41.52c1.102 0 1.47.368 2.021 1.47l38.213 72.808h.367l3.859-26.475c4.409-31.44 0-40.265-10.289-40.817l-6.062-.367c-1.102 0-1.287-.368-1.102-1.288l.551-4.045c.184-1.103.55-1.286 1.47-1.286h42.99c1.101 0 1.285.368 1.101 1.286l-.55 4.045c-.184 1.103-.552 1.288-1.47 1.288l-2.572.367c-7.165.92-11.207 9.377-15.616 40.817l-11.024 77.404c-.183.918-.55 1.286-1.837 1.286h-14.513z"></path>
  </g>
</svg>
