<svg xmlns="http://www.w3.org/2000/svg" xmlns:xlink="http://www.w3.org/1999/xlink" width="275" height="379" viewBox="0 0 275 379">
  <rect x="0" y="0" width="100%" height="100%" fill="black"></rect>
  <g fill="#fefefe" fill-rule="evenodd">
    <!-- MAKE -->
    <path d="M.987 66.664h18.518c.582 0 .679-.097.776-.678l.291-2.132c.097-.485 0-.678-.582-.678l-1.55-.194c-4.267-.29-5.14-4.942-2.91-21.511l3.394-23.836h.194l8.434 49.61c.098.582.485.679.97.679h7.95c.485 0 .776-.097 1.067-.679l22.59-49.223h.194l-5.139 36.24c-1.066 7.75-1.357 8.526-3.587 8.72l-3.103.194c-.485 0-.678.097-.775.581l-.29 2.229c-.098.484 0 .678.58.678h30.832c.582 0 .678-.097.775-.678l.291-2.132c.097-.485 0-.678-.581-.678l-3.394-.194c-2.23-.194-2.327-.97-1.26-8.72l5.72-40.6c1.067-7.752 1.551-8.623 3.684-8.72l3.685-.194c.58 0 .678-.097.775-.678l.29-2.132c.098-.485 0-.678-.58-.678h-24.24c-.484 0-.968.097-1.26.775l-19.584 42.73h-.194L35.6 2.036c-.097-.678-.485-.775-.97-.775H10.198c-.582 0-.776.097-.873.678l-.29 2.132c-.098.484.096.678.678.678l3.878.194c2.23.097 2.424 1.065 1.358 8.72l-3.976 27.809c-2.326 16.57-4.362 21.026-8.24 21.511l-1.26.194c-.583 0-.68.097-.776.581l-.291 2.229c-.097.484 0 .678.581.678"></path>
    <path d="M112.481 18.023h.097l4.072 22.285H102.69l9.792-22.285z M84.268 62.982l-.97.194c-.581 0-.775.097-.872.581l-.291 2.229c-.097.484.097.678.582.678h20.166c.485 0 .678-.097.776-.678l.29-2.132c.097-.484 0-.678-.581-.678l-2.133-.194c-2.812-.097-3.975-2.229-3.975-5.426 0-3.488 1.454-8.14 2.908-11.53l.776-1.745h16.385l1.648 9.108c.485 2.617.872 5.039.872 6.492 0 2.229-1.066 3.004-2.908 3.1l-2.812.195c-.484 0-.678.097-.775.581l-.291 2.229c-.097.484 0 .678.582.678h31.121c.582 0 .679-.097.776-.678l.388-2.132c.097-.484-.097-.678-.679-.678l-1.648-.194c-2.327-.194-3.005-.969-4.75-9.496L128.38.872c-.097-.775-.29-.872-.872-.872h-11.053c-.872 0-1.066.194-1.357.872L96.775 42.537c-2.327 5.33-4.557 10.077-6.787 14.437-2.424 4.652-3.49 5.814-5.72 6.008z"></path>
    <path d="M148.061 66.664h30.928c.582 0 .679-.097.776-.678l.29-2.132c.097-.485 0-.678-.581-.678l-3.393-.194c-2.23-.194-2.23-.97-1.26-8.72l.969-7.171c.485-4.07 1.745-6.88 4.75-9.883l10.665 28.487c.29.775.582.969 1.358.969h21.523c.582 0 .679-.097.776-.678l.388-2.132c.097-.485-.097-.678-.582-.678l-.97-.097c-2.132-.097-2.908-1.454-5.914-8.818l-12.41-31.49 7.853-7.752c8.242-8.042 10.859-9.787 15.707-10.077l1.454-.194c.582 0 .679-.097.776-.678l.29-2.132c.098-.485 0-.678-.581-.678h-24.626c-.582 0-.776.097-.873.678l-.29 2.132c-.098.484.097.678.678.678l2.133.194c2.133.097 3.2 1.065 3.2 3.003 0 2.714-2.618 5.717-6.496 9.593-9.89 9.786-15.222 15.019-16.967 17.732h-.097l3.005-21.608c1.067-7.752 1.358-8.527 3.588-8.72l3.102-.194c.582 0 .679-.097.776-.678l.29-2.132c.098-.485 0-.678-.581-.678h-30.831c-.485 0-.68.097-.776.678l-.29 2.132c-.098.484.096.678.581.678l3.393.194c2.23.193 2.327.968 1.26 8.72l-5.72 40.6c-1.066 7.75-1.357 8.526-3.587 8.72l-3.102.194c-.582 0-.679.097-.776.581l-.29 2.229c-.098.484 0 .678.484.678"></path>
    <path d="M218.448 63.176c-.582 0-.679.097-.776.581l-.291 2.229c-.097.484 0 .678.582.678h49.93c.485 0 .582-.29.68-.872l3.974-20.445c.098-.581-.097-.775-.581-.775h-2.424c-.485 0-.582.097-.776.775l-.388 1.647c-2.714 10.562-7.174 15.407-15.61 15.407h-9.307l3.976-28.003h3.199c4.46 0 5.817 3.294 5.43 8.526l-.097 1.454c-.097.581 0 .775.484.775h2.23c.582 0 .679-.29.776-.872l3.296-23.352c.097-.58 0-.775-.581-.775h-2.23c-.485 0-.582.097-.68.775l-.193.873c-1.163 5.425-3.394 8.72-8.047 8.72h-3.102l3.587-25.096h6.883c8.338 0 10.762 5.426 9.696 15.794l-.097 1.55c-.097.582 0 .776.484.776h2.424c.679 0 .776-.194.873-.776l2.811-20.638c.097-.582 0-.872-.485-.872h-47.41c-.484 0-.678.097-.775.678l-.29 2.132c-.098.484.096.678.58.678l3.394.194c2.23.193 2.327.969 1.26 8.72l-5.72 40.6c-1.066 7.75-1.357 8.526-3.684 8.72l-3.005.194z"></path>

    <!-- OUR -->
    <path d="M34.92 100.546c3.274-12.134 7.913-18.405 16.098-18.405 7.911 0 11.459 6.271 11.459 18.95 0 12.68-3.002 33.403-6.685 47.309-3.274 12.133-7.912 18.268-16.097 18.268-7.912 0-11.595-6.135-11.595-18.814s3-33.402 6.82-47.308m4.093 71.712c31.24 0 51.292-25.495 51.292-56.988 0-26.176-17.052-38.583-38.742-38.583C20.187 76.687.27 102.182.27 133.675c0 26.177 16.916 38.583 38.743 38.583"></path>
    <path d="M132.183 95.91c1.5-10.906 1.91-11.997 5.047-12.27l4.365-.272c.819 0 .955-.137 1.092-.955l.409-3c.136-.68 0-.954-.819-.954h-43.38c-.682 0-.955.137-1.091.955l-.41 3c-.136.68.137.954.819.954l4.775.272c3.137.273 3.274 1.364 1.773 12.27l-6.002 43.082c-.273 2.045-.546 4.636-.546 6.68 0 17.997 14.324 26.586 32.33 26.586 23.737 0 31.786-13.77 34.923-35.583l3.274-22.768c3.274-23.314 6.139-29.585 11.46-30.267l1.636-.272c.819 0 .955-.137 1.091-.955l.546-3c.136-.68 0-.954-.818-.954h-29.603c-.818 0-.954.137-1.091.955l-.41 3c-.136.68 0 .954.82.954l3.819.272c7.64.545 9.413 6.953 6.002 30.267l-3.274 23.313c-2.455 17.315-8.321 25.904-19.917 25.904-8.867 0-13.778-4.772-13.778-14.588 0-2.59.273-5.59.819-8.59l6.139-44.036z"></path>
    <path d="M223.717 84.322h5.593c6.684 0 10.231 2.863 10.231 11.725 0 5.726-.955 11.725-3.274 16.497-2.319 5.59-6.412 7.225-11.868 7.225h-5.73l5.048-35.447zm-36.97 68.713c-1.636 10.907-2.045 11.997-5.183 12.27l-4.365.273c-.682 0-.955.136-1.091.818l-.41 3.135c-.136.682 0 .955.682.955h43.517c.819 0 .955-.136 1.091-.955l.41-2.999c.136-.682 0-.954-.819-.954l-4.774-.273c-3.138-.273-3.138-1.363-1.637-12.27l3.683-27.54h4.775c7.502 0 8.73 4.772 9.003 19.769.273 18.268 6.412 26.994 20.735 26.994 8.73 0 15.825-2.863 20.19-10.088.41-.819.41-1.227-.273-1.5l-2.728-1.09c-.682-.274-.955 0-1.364.68-1.228 1.637-2.32 2.591-3.957 2.591-3.546 0-4.228-4.908-4.91-17.178-.683-14.043-7.503-20.723-22.373-23.314v-.545c10.368-.272 18.28-2.727 23.6-7.362 4.502-3.954 7.367-9.68 7.367-16.77 0-14.587-12.687-19.223-25.51-19.223h-53.475c-.819 0-1.092.137-1.228.955l-.41 3c-.136.681.137.954.956.954l4.774.272c3.001.273 3.138 1.364 1.637 12.27l-7.912 57.125z"></path>

    <!-- TERROR -->
    <path transform="translate(-230, 0)" d="M274.153 182.794h-41.207c-.37 0-.517.221-.59.663l-2.36 16.871c-.073.442 0 .663.37.663h1.842c.369 0 .443-.147.59-.663l.442-1.694c1.77-7.367 4.35-12.672 10.468-12.672h1.99l-5.16 37.13c-.884 5.895-1.105 6.484-2.8 6.632l-2.36.147c-.368 0-.516.074-.59.442l-.22 1.694c-.075.369.073.516.515.516h23.368c.442 0 .516-.074.59-.516l.295-1.62c.074-.369-.074-.516-.516-.516l-2.58-.147c-1.696-.148-1.77-.737-.958-6.631l5.16-37.131h2.064c6.413 0 7.519 5.378 6.929 12.304l-.147 2.062c-.074.442.074.663.442.663h1.77c.442 0 .515-.22.59-.663l2.431-16.87c.074-.443 0-.664-.368-.664"></path>
    <path transform="translate(-145, 0)" d="M223.584 231.86l3.022-15.545c.074-.442-.074-.59-.442-.59h-1.843c-.369 0-.442.075-.59.59l-.295 1.253c-2.063 8.03-5.455 11.713-11.868 11.713h-7.077l3.022-21.29h2.433c3.391 0 4.423 2.504 4.128 6.482L214 215.58c-.073.441 0 .589.37.589h1.695c.442 0 .516-.221.59-.663l2.506-17.755c.074-.443 0-.59-.443-.59h-1.695c-.369 0-.442.074-.516.59l-.148.663c-.884 4.126-2.58 6.63-6.118 6.63h-2.36l2.729-19.081h5.234c6.34 0 8.182 4.126 7.371 12.009l-.074 1.179c-.073.442 0 .589.369.589h1.843c.516 0 .59-.147.663-.59l2.138-15.692c.074-.442 0-.663-.368-.663h-36.048c-.368 0-.516.074-.59.516l-.22 1.62c-.075.369.073.516.442.516l2.58.148c1.695.147 1.769.737.958 6.63l-4.35 30.87c-.81 5.893-1.031 6.482-2.8 6.63l-2.286.147c-.442 0-.516.073-.59.442l-.22 1.695c-.074.368 0 .515.442.515h37.964c.368 0 .442-.22.516-.663"></path>
    <path transform="scale(0.54) translate(-27, 260)" d="M223.717 84.322h5.593c6.684 0 10.231 2.863 10.231 11.725 0 5.726-.955 11.725-3.274 16.497-2.319 5.59-6.412 7.225-11.868 7.225h-5.73l5.048-35.447zm-36.97 68.713c-1.636 10.907-2.045 11.997-5.183 12.27l-4.365.273c-.682 0-.955.136-1.091.818l-.41 3.135c-.136.682 0 .955.682.955h43.517c.819 0 .955-.136 1.091-.955l.41-2.999c.136-.682 0-.954-.819-.954l-4.774-.273c-3.138-.273-3.138-1.363-1.637-12.27l3.683-27.54h4.775c7.502 0 8.73 4.772 9.003 19.769.273 18.268 6.412 26.994 20.735 26.994 8.73 0 15.825-2.863 20.19-10.088.41-.819.41-1.227-.273-1.5l-2.728-1.09c-.682-.274-.955 0-1.364.68-1.228 1.637-2.32 2.591-3.957 2.591-3.546 0-4.228-4.908-4.91-17.178-.683-14.043-7.503-20.723-22.373-23.314v-.545c10.368-.272 18.28-2.727 23.6-7.362 4.502-3.954 7.367-9.68 7.367-16.77 0-14.587-12.687-19.223-25.51-19.223h-53.475c-.819 0-1.092.137-1.228.955l-.41 3c-.136.681.137.954.956.954l4.774.272c3.001.273 3.138 1.364 1.637 12.27l-7.912 57.125z"></path>
    <path transform="scale(0.54) translate(70, 260)" d="M223.717 84.322h5.593c6.684 0 10.231 2.863 10.231 11.725 0 5.726-.955 11.725-3.274 16.497-2.319 5.59-6.412 7.225-11.868 7.225h-5.73l5.048-35.447zm-36.97 68.713c-1.636 10.907-2.045 11.997-5.183 12.27l-4.365.273c-.682 0-.955.136-1.091.818l-.41 3.135c-.136.682 0 .955.682.955h43.517c.819 0 .955-.136 1.091-.955l.41-2.999c.136-.682 0-.954-.819-.954l-4.774-.273c-3.138-.273-3.138-1.363-1.637-12.27l3.683-27.54h4.775c7.502 0 8.73 4.772 9.003 19.769.273 18.268 6.412 26.994 20.735 26.994 8.73 0 15.825-2.863 20.19-10.088.41-.819.41-1.227-.273-1.5l-2.728-1.09c-.682-.274-.955 0-1.364.68-1.228 1.637-2.32 2.591-3.957 2.591-3.546 0-4.228-4.908-4.91-17.178-.683-14.043-7.503-20.723-22.373-23.314v-.545c10.368-.272 18.28-2.727 23.6-7.362 4.502-3.954 7.367-9.68 7.367-16.77 0-14.587-12.687-19.223-25.51-19.223h-53.475c-.819 0-1.092.137-1.228.955l-.41 3c-.136.681.137.954.956.954l4.774.272c3.001.273 3.138 1.364 1.637 12.27l-7.912 57.125z"></path>
    <path transform="scale(0.54) translate(337, 260)" d="M34.92 100.546c3.274-12.134 7.913-18.405 16.098-18.405 7.911 0 11.459 6.271 11.459 18.95 0 12.68-3.002 33.403-6.685 47.309-3.274 12.133-7.912 18.268-16.097 18.268-7.912 0-11.595-6.135-11.595-18.814s3-33.402 6.82-47.308m4.093 71.712c31.24 0 51.292-25.495 51.292-56.988 0-26.176-17.052-38.583-38.742-38.583C20.187 76.687.27 102.182.27 133.675c0 26.177 16.916 38.583 38.743 38.583"></path>
    <path transform="scale(0.54) translate(240, 260)" d="M223.717 84.322h5.593c6.684 0 10.231 2.863 10.231 11.725 0 5.726-.955 11.725-3.274 16.497-2.319 5.59-6.412 7.225-11.868 7.225h-5.73l5.048-35.447zm-36.97 68.713c-1.636 10.907-2.045 11.997-5.183 12.27l-4.365.273c-.682 0-.955.136-1.091.818l-.41 3.135c-.136.682 0 .955.682.955h43.517c.819 0 .955-.136 1.091-.955l.41-2.999c.136-.682 0-.954-.819-.954l-4.774-.273c-3.138-.273-3.138-1.363-1.637-12.27l3.683-27.54h4.775c7.502 0 8.73 4.772 9.003 19.769.273 18.268 6.412 26.994 20.735 26.994 8.73 0 15.825-2.863 20.19-10.088.41-.819.41-1.227-.273-1.5l-2.728-1.09c-.682-.274-.955 0-1.364.68-1.228 1.637-2.32 2.591-3.957 2.591-3.546 0-4.228-4.908-4.91-17.178-.683-14.043-7.503-20.723-22.373-23.314v-.545c10.368-.272 18.28-2.727 23.6-7.362 4.502-3.954 7.367-9.68 7.367-16.77 0-14.587-12.687-19.223-25.51-19.223h-53.475c-.819 0-1.092.137-1.228.955l-.41 3c-.136.681.137.954.956.954l4.774.272c3.001.273 3.138 1.364 1.637 12.27l-7.912 57.125z"></path>

    <!-- GREAT -->
    <path d="M26.112 304.639c6.48 0 13.217-1.209 17.883-2.85h.172l.346 1.469c0 .604.172.69.605.69h1.295c.605 0 .778-.173.95-.777l1.901-13.21c.95-6.82 1.123-7.597 3.196-7.683l2.678-.173c.432-.086.519-.173.605-.604l.259-1.9c.087-.518 0-.69-.432-.69H27.149c-.519 0-.691.086-.777.604l-.26 1.9c-.086.517.086.69.605.69l4.924.173c1.987 0 2.246.863 1.21 7.683l-1.383 9.93c-1.295.863-3.37 1.294-5.27 1.294-5.874 0-8.206-4.057-8.206-12.087 0-8.633 1.555-20.807 4.06-29.095 2.592-8.46 6.566-12.519 13.045-12.519 7.947 0 11.489 6.13 10.711 14.419l-.086 2.417c-.086.518 0 .777.432.777h2.16c.518 0 .605-.26.69-.777l2.765-18.735c.087-.604 0-.777-.691-.777h-1.382c-.519 0-.691.173-.864.777l-.26.95c-3.196-1.295-8.033-2.418-13.907-2.418-22.98 0-34.383 15.8-34.383 35.83 0 16.662 9.59 24.692 25.83 24.692"></path>
    <path d="M83.645 248.952h3.542c4.233 0 6.48 1.813 6.48 7.425 0 3.626-.606 7.425-2.074 10.446-1.469 3.54-4.06 4.576-7.516 4.576h-3.628l3.196-22.447zm-3.714 26.074h3.023c4.751 0 5.529 3.021 5.701 12.518.174 11.57 4.06 17.094 13.131 17.094 5.53 0 10.021-1.812 12.785-6.388.26-.518.26-.777-.172-.95l-1.728-.69c-.432-.173-.604 0-.864.431-.777 1.036-1.468 1.64-2.505 1.64-2.246 0-2.678-3.108-3.11-10.878-.432-8.893-4.751-13.123-14.167-14.763v-.345c6.565-.173 11.575-1.727 14.945-4.663 2.85-2.503 4.665-6.13 4.665-10.619 0-9.238-8.035-12.173-16.155-12.173H61.616c-.518 0-.69.086-.777.604l-.259 1.9c-.087.431.086.604.605.604l3.023.172c1.9.173 1.987.864 1.037 7.77l-5.01 36.175c-1.037 6.907-1.297 7.598-3.283 7.77l-2.765.173c-.432 0-.604.087-.691.518l-.259 1.986c-.086.432 0 .605.432.605h27.557c.519 0 .605-.087.691-.605l.26-1.9c.086-.431 0-.604-.519-.604l-3.023-.172c-1.987-.173-1.987-.864-1.037-7.77l2.333-17.44z"></path>
    <path d="M115.348 303.516h44.49c.432 0 .518-.258.604-.777l3.542-18.217c.087-.518-.086-.69-.518-.69h-2.16c-.432 0-.518.086-.69.69l-.346 1.468c-2.42 9.41-6.393 13.728-13.909 13.728h-8.293l3.542-24.951h2.85c3.974 0 5.184 2.935 4.839 7.597l-.087 1.295c-.086.518 0 .69.432.69h1.987c.518 0 .604-.258.691-.776l2.937-20.807c.086-.518 0-.69-.518-.69h-1.987c-.432 0-.519.085-.605.69l-.172.777c-1.037 4.835-3.024 7.77-7.171 7.77h-2.764l3.196-22.361h6.134c7.429 0 9.589 4.835 8.638 14.073l-.086 1.381c-.086.518 0 .691.432.691h2.16c.604 0 .69-.173.777-.69l2.506-18.39c.086-.518 0-.777-.433-.777h-42.243c-.432 0-.605.086-.69.604l-.26 1.9c-.087.431.086.604.518.604l3.024.173c1.986.172 2.073.863 1.123 7.77l-5.097 36.174c-.95 6.907-1.21 7.598-3.283 7.77l-2.678.174c-.518 0-.604.086-.69.517l-.26 1.986c-.087.432 0 .604.518.604"></path>
    <path d="M181.952 280.033l8.725-19.857h.086l3.628 19.857h-12.44zm12.699 20.202l-2.506.173c-.431 0-.605.086-.69.518l-.26 1.986c-.086.432 0 .604.519.604h27.73c.518 0 .604-.086.69-.604l.347-1.9c.086-.431-.087-.604-.605-.604l-1.47-.173c-2.072-.172-2.677-.863-4.232-8.46l-9.33-46.88c-.086-.691-.259-.778-.777-.778h-9.848c-.778 0-.95.173-1.21.777l-16.327 37.125c-2.073 4.748-4.06 8.978-6.047 12.864-2.16 4.144-3.11 5.18-5.097 5.352l-.864.173c-.518 0-.69.086-.777.518l-.26 1.986c-.086.432.087.604.519.604h17.968c.432 0 .605-.086.691-.604l.26-1.9c.086-.431 0-.604-.519-.604l-1.9-.173c-2.505-.086-3.542-1.985-3.542-4.834 0-3.108 1.296-7.253 2.591-10.274l.692-1.555h14.6l1.468 8.116c.432 2.332.778 4.49.778 5.785 0 1.986-.951 2.676-2.592 2.762z"></path>
    <path d="M267.214 265.788c-.086.518.087.777.519.777h2.073c.518 0 .605-.259.691-.777l2.851-19.77c.086-.52 0-.778-.432-.778h-48.29c-.432 0-.605.259-.691.777l-2.765 19.77c-.086.519 0 .778.432.778h2.16c.432 0 .518-.173.69-.777l.52-1.986c2.073-8.634 5.096-14.85 12.266-14.85h2.332l-6.047 43.513c-1.036 6.907-1.295 7.598-3.282 7.77l-2.765.173c-.431 0-.604.087-.691.518l-.259 1.986c-.086.432.086.605.605.605h27.385c.518 0 .604-.087.69-.605l.346-1.9c.087-.431-.086-.604-.605-.604l-3.023-.172c-1.987-.173-2.073-.864-1.123-7.77l6.047-43.514h2.419c7.516 0 8.811 6.303 8.12 14.418l-.173 2.418z"></path>

    <!-- AGAIN -->
    <path d="M19.392 352.766l9.228-21.001h.091l3.838 21H19.392zm40.109 21.549l-1.553-.183c-2.193-.182-2.832-.912-4.477-8.948l-9.867-49.581c-.092-.73-.275-.822-.823-.822H32.366c-.823 0-1.006.183-1.28.822L13.82 354.866c-2.193 5.022-4.294 9.496-6.396 13.606-2.284 4.382-3.289 5.478-5.39 5.66l-.914.183c-.548 0-.73.091-.822.548l-.274 2.1c-.091.457.091.64.548.64h19.004c.457 0 .64-.092.73-.64l.275-2.009c.091-.456 0-.639-.548-.639l-2.01-.183c-2.65-.09-3.746-2.1-3.746-5.113 0-3.287 1.37-7.67 2.74-10.866l.731-1.644h15.441l1.553 8.584c.457 2.465.823 4.748.823 6.117 0 2.101-1.005 2.831-2.741 2.922l-2.65.183c-.457 0-.64.091-.731.548l-.274 2.1c-.091.457 0 .64.548.64h29.328c.549 0 .64-.092.731-.64l.366-2.009c.091-.456-.091-.639-.64-.639z"></path>
    <path d="M118.247 354.958c.457-.092.548-.183.64-.64l.274-2.009c.091-.548 0-.73-.457-.73H88.645c-.548 0-.731.091-.823.639l-.274 2.009c-.09.548.092.73.64.73l5.208.183c2.101 0 2.375.913 1.279 8.127l-1.462 10.5c-1.37.913-3.563 1.37-5.573 1.37-6.213 0-8.68-4.292-8.68-12.783 0-9.132 1.645-22.006 4.295-30.772 2.74-8.948 6.943-13.24 13.796-13.24 8.405 0 12.151 6.483 11.328 15.25l-.09 2.555c-.092.549 0 .822.456.822h2.284c.549 0 .64-.273.731-.822l2.924-19.814c.091-.639 0-.821-.731-.821h-1.462c-.548 0-.73.182-.913.821l-.275 1.005c-3.38-1.37-8.497-2.557-14.71-2.557-24.302 0-36.363 16.71-36.363 37.894 0 17.622 10.142 26.114 27.318 26.114 6.853 0 13.98-1.278 18.913-3.013h.183l.365 1.552c0 .64.183.73.64.73h1.37c.64 0 .823-.182 1.005-.82l2.01-13.971c1.005-7.214 1.188-8.036 3.38-8.127l2.833-.182z"></path>
    <path d="M133.595 352.766l9.228-21.001h.091l3.838 21h-13.157zm40.109 21.549l-1.553-.183c-2.193-.182-2.832-.912-4.477-8.948l-9.867-49.581c-.092-.73-.275-.822-.823-.822H146.57c-.823 0-1.005.183-1.28.822l-17.267 39.263c-2.193 5.022-4.294 9.496-6.396 13.606-2.284 4.382-3.289 5.478-5.39 5.66l-.914.183c-.548 0-.73.091-.822.548l-.274 2.1c-.091.457.091.64.548.64h19.004c.457 0 .64-.092.73-.64l.275-2.009c.091-.456 0-.639-.548-.639l-2.01-.183c-2.65-.09-3.746-2.1-3.746-5.113 0-3.287 1.37-7.67 2.74-10.866l.731-1.644h15.441l1.553 8.584c.457 2.465.823 4.748.823 6.117 0 2.101-1.005 2.831-2.741 2.922l-2.65.183c-.457 0-.64.091-.73.548l-.275 2.1c-.091.457 0 .64.548.64h29.328c.548 0 .64-.092.731-.64l.366-2.009c.091-.456-.092-.639-.64-.639z"></path>
    <path d="M206.96 327.656c1.004-7.305 1.278-8.127 3.38-8.218l2.924-.183c.548 0 .639-.091.73-.639l.275-2.009c.09-.456 0-.639-.549-.639h-29.054c-.456 0-.639.091-.73.64l-.274 2.008c-.092.457.09.64.548.64l3.197.182c2.101.091 2.193.913 1.188 8.218l-5.39 38.259c-1.006 7.304-1.28 8.126-3.381 8.218l-2.923.182c-.548 0-.64.091-.731.548l-.275 2.1c-.091.457 0 .64.549.64h29.054c.548 0 .639-.092.73-.64l.275-2.009c.09-.456 0-.639-.549-.639l-3.198-.182c-2.1-.092-2.192-.914-1.187-8.218l5.39-38.26z"></path>
    <path transform="translate(208.452 315.704)" d="M65.842.264h-21.38c-.456 0-.639.092-.73.64l-.274 2.008c-.092.457 0 .639.548.639l3.015.183c5.116.274 7.309 4.656 5.116 20.27l-1.918 13.15h-.183L31.032.993c-.274-.547-.457-.73-1.005-.73H9.38c-.548 0-.73.092-.822.64l-.275 2.008c-.09.457.092.639.64.639l3.928.183c2.102.09 2.285 1.004 1.188 8.218l-3.654 26.206C8.19 53.772 6.272 57.972 2.618 58.428l-1.188.183c-.548 0-.731.092-.822.548l-.274 2.1c-.091.456 0 .64.548.64h21.38c.547 0 .639-.092.73-.64l.366-2.009c.09-.456-.092-.639-.549-.639l-3.015-.183c-5.207-.274-7.309-4.656-5.116-20.27l2.924-20.545h.09l24.03 44.833c.274.456.457.64 1.005.64h7.218c.64 0 .822-.184.913-.64l5.482-38.441C58.533 8.39 60.543 4.19 64.106 3.734l1.28-.183c.456 0 .639-.091.73-.64L66.39.904c.091-.456 0-.639-.548-.639"></path>
  </g>
</svg>
